<svg width="1240" height="907" viewBox="0 0 1240 907" xmlns="http://www.w3.org/2000/svg">
<defs>
  <marker id="a1" markerWidth="8" markerHeight="8" refX="6" refY="4" orient="auto" markerUnits="strokeWidth">
    <path d="M0 1.5L6.5 4L0 6.5" fill="none" stroke="#c8922a" stroke-width="1.4" stroke-linecap="round" stroke-linejoin="round"/>
  </marker>
  <marker id="a2" markerWidth="8" markerHeight="8" refX="6" refY="4" orient="auto" markerUnits="strokeWidth">
    <path d="M0 1.5L6.5 4L0 6.5" fill="none" stroke="#d4a843" stroke-width="1.4" stroke-linecap="round" stroke-linejoin="round"/>
  </marker>
  <style>
    @import url('https://fonts.googleapis.com/css2?family=Syne:wght@400;600;700&amp;family=JetBrains+Mono:wght@400;500;700&amp;display=swap');
    .f-syne  { font-family: "Syne", Arial, sans-serif; }
    .f-mono  { font-family: "JetBrains Mono", "Courier New", monospace; }
    .t-lane  { font-size:9px; letter-spacing:.13em; fill:#5a5550; }
    .t-label { font-size:12px; font-weight:600; fill:#f0ece4; }
    .t-body  { font-size:10.5px; fill:#b0aaa4; }
    .t-small { font-size:9px;   letter-spacing:.02em; fill:#6a6560; }
    .t-accent{ font-size:9px;   letter-spacing:.04em; fill:#c8922a; font-weight:500; }
    .t-badge { font-size:9px;   font-weight:700; fill:#c8922a; }
    .t-badge2{ font-size:9px;   font-weight:700; fill:#d4a843; }
    .flow1   { stroke:#c8922a; stroke-opacity:.8; stroke-width:1.5; fill:none; marker-end:url(#a1); }
    .flow2   { stroke:#d4a843; stroke-opacity:.8; stroke-width:1.5; fill:none; marker-end:url(#a2); }
    .flow3   { stroke:#c8922a; stroke-opacity:.5; stroke-width:1.3; fill:none; marker-end:url(#a1); stroke-dasharray:5 4; }
  </style>
</defs>
<rect width="1240" height="907" fill="#1a1a1a"/>
<rect x="20" y="20" width="186" height="867" rx="4" fill="rgba(255,255,255,0.022)" stroke="rgba(200,146,42,0.16)" stroke-width="1"/>
<text class="f-mono t-lane" x="34" y="36">CLIENTES / ATORES</text>
<rect x="216" y="20" width="268" height="867" rx="4" fill="rgba(255,255,255,0.022)" stroke="rgba(200,146,42,0.16)" stroke-width="1"/>
<text class="f-mono t-lane" x="230" y="36">PWA / FRONTEND</text>
<rect x="494" y="20" width="438" height="867" rx="4" fill="rgba(255,255,255,0.022)" stroke="rgba(200,146,42,0.16)" stroke-width="1"/>
<text class="f-mono t-lane" x="508" y="36">BACKEND NESTJS</text>
<rect x="942" y="20" width="278" height="867" rx="4" fill="rgba(255,255,255,0.022)" stroke="rgba(200,146,42,0.16)" stroke-width="1"/>
<text class="f-mono t-lane" x="956" y="36">INFRA &amp; EXTERNOS</text>
<rect x="30" y="48" width="166" height="75" rx="4" fill="#222222" stroke="rgba(200,146,42,0.22)" stroke-width="1"/>
<text class="f-syne t-label" x="44" y="68">Usuário final</text>
<line x1="44" y1="78" x2="182" y2="78" stroke="rgba(200,146,42,0.15)" stroke-width="1"/>
<text class="f-syne t-body" x="44" y="94">Comprador via WhatsApp</text>
<rect x="30" y="133" width="166" height="75" rx="4" fill="#222222" stroke="rgba(200,146,42,0.22)" stroke-width="1"/>
<text class="f-syne t-label" x="44" y="153">Operador</text>
<line x1="44" y1="163" x2="182" y2="163" stroke="rgba(200,146,42,0.15)" stroke-width="1"/>
<text class="f-syne t-body" x="44" y="179">PWA offline — portaria</text>
<rect x="30" y="218" width="166" height="75" rx="4" fill="#222222" stroke="rgba(200,146,42,0.22)" stroke-width="1"/>
<text class="f-syne t-label" x="44" y="238">Admin / Org</text>
<line x1="44" y1="248" x2="182" y2="248" stroke="rgba(200,146,42,0.15)" stroke-width="1"/>
<text class="f-syne t-body" x="44" y="264">Dashboard administrativo</text>
<text class="f-mono t-lane" x="30" y="319">LEGENDA</text>
<line x1="30" y1="325" x2="196" y2="325" stroke="rgba(200,146,42,0.12)" stroke-width="1"/>
<line x1="30" y1="341" x2="52" y2="341" class="flow1"/>
<text class="f-mono t-small" x="58" y="345">Fluxo principal</text>
<line x1="30" y1="359" x2="52" y2="359" class="flow2"/>
<text class="f-mono t-small" x="58" y="363">Dados / infra</text>
<line x1="30" y1="377" x2="52" y2="377" class="flow3"/>
<text class="f-mono t-small" x="58" y="381">Sync offline (dashed)</text>
<circle cx="39" cy="399" r="8" fill="#1a1a1a" stroke="#c8922a" stroke-width="1.2"/>
<text class="f-mono t-badge" x="39" y="403" text-anchor="middle">1</text>
<text class="f-mono t-small" x="54" y="403">WA Inbound</text>
<circle cx="39" cy="417" r="8" fill="#1a1a1a" stroke="#d4a843" stroke-width="1.2"/>
<text class="f-mono t-badge2" x="39" y="421" text-anchor="middle">2</text>
<text class="f-mono t-small" x="54" y="421">MP Payment</text>
<circle cx="39" cy="435" r="8" fill="#1a1a1a" stroke="#c8922a" stroke-width="1.2" stroke-dasharray="5 4"/>
<text class="f-mono t-badge" x="39" y="439" text-anchor="middle">3</text>
<text class="f-mono t-small" x="54" y="439">Sync offline</text>
<rect x="226" y="48" width="248" height="190" rx="4" fill="#222222" stroke="rgba(200,146,42,0.22)" stroke-width="1"/>
<text class="f-syne t-label" x="240" y="68">App Landing (PWA)</text>
<line x1="240" y1="78" x2="460" y2="78" stroke="rgba(200,146,42,0.15)" stroke-width="1"/>
<text class="f-syne t-body" x="240" y="94">SyncManager.tsx</text>
<text class="f-mono t-small" x="240" y="109">listener online + retry interval</text>
<text class="f-syne t-body" x="240" y="123">db.ts — IndexedDB / syncQueue</text>
<text class="f-syne t-body" x="240" y="138">CheckinClient.tsx</text>
<text class="f-mono t-small" x="240" y="153">enfileira check-ins offline</text>
<text class="f-syne t-body" x="240" y="167">POS module</text>
<text class="f-mono t-small" x="240" y="182">enfileira pedidos offline</text>
<text class="f-mono t-accent" x="240" y="196">→ /admin/pos/sync (batch)</text>
<text class="f-mono t-accent" x="240" y="210">→ /admin/checkin/sync (batch)</text>
<rect x="226" y="250" width="248" height="89" rx="4" fill="#222222" stroke="rgba(200,146,42,0.22)" stroke-width="1"/>
<text class="f-syne t-label" x="240" y="270">Dashboard Admin</text>
<line x1="240" y1="280" x2="460" y2="280" stroke="rgba(200,146,42,0.15)" stroke-width="1"/>
<text class="f-syne t-body" x="240" y="296">React / Next</text>
<text class="f-mono t-small" x="240" y="311">Eventos · pedidos · relatórios</text>
<rect x="504" y="48" width="418" height="130" rx="4" fill="#222222" stroke="rgba(200,146,42,0.22)" stroke-width="1"/>
<text class="f-syne t-label" x="518" y="68">Bootstrap / Cross-cutting</text>
<line x1="518" y1="78" x2="908" y2="78" stroke="rgba(200,146,42,0.15)" stroke-width="1"/>
<text class="f-mono t-small" x="518" y="94">main.ts — pipes, filtros, CORS, logger</text>
<text class="f-mono t-small" x="518" y="108">app.module.ts — Config, TypeORM, Redis, Throttler, Schedule</text>
<text class="f-mono t-small" x="518" y="122">TenantMiddleware (x-org-id / JWT) · JwtGuard + RBAC</text>
<text class="f-mono t-accent" x="518" y="136">Multi-tenant: organizationId em cada request</text>
<text class="f-mono t-accent" x="518" y="150">Redis: throttling · locks · cache (injetado via app.module)</text>
<text class="f-mono t-lane" x="518" y="198">FEATURE MODULES</text>
<line x1="713" y1="206" x2="713" y2="887" stroke="rgba(200,146,42,0.1)" stroke-width="1"/>
<rect x="504" y="216" width="205" height="117" rx="4" fill="#222222" stroke="rgba(200,146,42,0.22)" stroke-width="1"/>
<text class="f-syne t-label" x="518" y="236">Webhooks</text>
<line x1="518" y1="246" x2="695" y2="246" stroke="rgba(200,146,42,0.15)" stroke-width="1"/>
<text class="f-mono t-accent" x="518" y="262">← recebe de WA Cloud API</text>
<text class="f-mono t-small" x="518" y="276">webhooks.whatsapp.controller</text>
<text class="f-mono t-small" x="518" y="290">→ whatsapp.inbound.service</text>
<text class="f-syne t-body" x="518" y="304">Recebe msgs inbound</text>
<rect x="717" y="216" width="205" height="103" rx="4" fill="#222222" stroke="rgba(200,146,42,0.22)" stroke-width="1"/>
<text class="f-syne t-label" x="731" y="236">Payments</text>
<line x1="731" y1="246" x2="908" y2="246" stroke="rgba(200,146,42,0.15)" stroke-width="1"/>
<text class="f-mono t-small" x="731" y="262">payments.controller</text>
<text class="f-mono t-small" x="731" y="276">webhook.controller → DLQ</text>
<text class="f-syne t-body" x="731" y="290">Preferência MP · Bricks</text>
<rect x="504" y="343" width="205" height="103" rx="4" fill="#222222" stroke="rgba(200,146,42,0.22)" stroke-width="1"/>
<text class="f-syne t-label" x="518" y="363">Shop</text>
<line x1="518" y1="373" x2="695" y2="373" stroke="rgba(200,146,42,0.15)" stroke-width="1"/>
<text class="f-mono t-small" x="518" y="389">shop-payments-webhook.ctrl</text>
<text class="f-mono t-small" x="518" y="403">→ shop.service.confirm</text>
<text class="f-syne t-body" x="518" y="417">PENDING→PAID · vouchers</text>
<rect x="717" y="343" width="205" height="103" rx="4" fill="#222222" stroke="rgba(200,146,42,0.22)" stroke-width="1"/>
<text class="f-syne t-label" x="731" y="363">Billing</text>
<line x1="731" y1="373" x2="908" y2="373" stroke="rgba(200,146,42,0.15)" stroke-width="1"/>
<text class="f-mono t-small" x="731" y="389">billing.service</text>
<text class="f-syne t-body" x="731" y="403">Assinaturas</text>
<text class="f-mono t-small" x="731" y="418">reutiliza /payments/webhook</text>
<rect x="504" y="456" width="205" height="103" rx="4" fill="#222222" stroke="rgba(200,146,42,0.22)" stroke-width="1"/>
<text class="f-syne t-label" x="518" y="476">Check-in / POS</text>
<line x1="518" y1="486" x2="695" y2="486" stroke="rgba(200,146,42,0.15)" stroke-width="1"/>
<text class="f-mono t-small" x="518" y="502">checkin.admin.controller</text>
<text class="f-mono t-small" x="518" y="516">pos.controller</text>
<text class="f-syne t-body" x="518" y="530">Batch sync da fila offline</text>
<rect x="717" y="456" width="205" height="89" rx="4" fill="#222222" stroke="rgba(200,146,42,0.22)" stroke-width="1"/>
<text class="f-syne t-label" x="731" y="476">Events / Admin</text>
<line x1="731" y1="486" x2="908" y2="486" stroke="rgba(200,146,42,0.15)" stroke-width="1"/>
<text class="f-mono t-small" x="731" y="502">events + admin modules</text>
<text class="f-syne t-body" x="731" y="516">Gestão de eventos e orgs</text>
<rect x="504" y="569" width="205" height="103" rx="4" fill="#222222" stroke="rgba(200,146,42,0.22)" stroke-width="1"/>
<text class="f-syne t-label" x="518" y="589">Messages</text>
<line x1="518" y1="599" x2="695" y2="599" stroke="rgba(200,146,42,0.15)" stroke-width="1"/>
<text class="f-mono t-small" x="518" y="615">whatsapp.controller</text>
<text class="f-mono t-small" x="518" y="629">broadcast.controller</text>
<text class="f-syne t-body" x="518" y="643">Outbound manual e broadcast</text>
<rect x="717" y="569" width="205" height="89" rx="4" fill="#222222" stroke="rgba(200,146,42,0.22)" stroke-width="1"/>
<text class="f-syne t-label" x="731" y="589">CRM</text>
<line x1="731" y1="599" x2="908" y2="599" stroke="rgba(200,146,42,0.15)" stroke-width="1"/>
<text class="f-mono t-small" x="731" y="615">crm.controller</text>
<text class="f-syne t-body" x="731" y="629">Queries por organizationId</text>
<rect x="504" y="682" width="205" height="89" rx="4" fill="#222222" stroke="rgba(200,146,42,0.22)" stroke-width="1"/>
<text class="f-syne t-label" x="518" y="702">Metrics</text>
<line x1="518" y1="712" x2="695" y2="712" stroke="rgba(200,146,42,0.15)" stroke-width="1"/>
<text class="f-mono t-small" x="518" y="728">metrics.controller</text>
<text class="f-syne t-body" x="518" y="742">GET /metrics → Prometheus</text>
<rect x="717" y="682" width="205" height="88" rx="4" fill="#1e1e1e" stroke="rgba(200,146,42,0.22)" stroke-width="1" stroke-dasharray="5 4"/>
<text class="f-syne t-label" x="731" y="702">Outbox / Workers</text>
<line x1="731" y1="712" x2="908" y2="712" stroke="rgba(200,146,42,0.15)" stroke-width="1"/>
<text class="f-mono t-small" x="731" y="728">outbound-worker.service.ts</text>
<text class="f-mono t-small" x="731" y="742">plan-change-outbox.worker.ts</text>
<rect x="504" y="785" width="418" height="75" rx="4" fill="#1e1e1e" stroke="rgba(200,146,42,0.22)" stroke-width="1" stroke-dasharray="5 4"/>
<text class="f-syne t-label" x="518" y="805">Docker Compose</text>
<line x1="518" y1="815" x2="908" y2="815" stroke="rgba(200,146,42,0.15)" stroke-width="1"/>
<text class="f-syne t-body" x="518" y="831">Backend NestJS · PostgreSQL · Redis · Prometheus</text>
<rect x="952" y="48" width="258" height="104" rx="4" fill="#222222" stroke="rgba(200,146,42,0.22)" stroke-width="1"/>
<text class="f-syne t-label" x="966" y="68">WhatsApp Cloud API</text>
<line x1="966" y1="78" x2="1196" y2="78" stroke="rgba(200,146,42,0.15)" stroke-width="1"/>
<text class="f-syne t-body" x="966" y="94">Recebe webhook inbound</text>
<text class="f-syne t-body" x="966" y="109">Aceita envio outbound</text>
<text class="f-mono t-small" x="966" y="124">sendTemplate (no active flow)</text>
<rect x="952" y="170" width="258" height="118" rx="4" fill="#222222" stroke="rgba(200,146,42,0.22)" stroke-width="1"/>
<text class="f-syne t-label" x="966" y="190">Mercado Pago</text>
<line x1="966" y1="200" x2="1196" y2="200" stroke="rgba(200,146,42,0.15)" stroke-width="1"/>
<text class="f-syne t-body" x="966" y="216">Cria preferência / payment</text>
<text class="f-syne t-body" x="966" y="231">Webhook de confirmação</text>
<text class="f-mono t-small" x="966" y="246">Assinatura: MP_WEBHOOK_SECRET</text>
<text class="f-mono t-small" x="966" y="260">Idempotência via DLQ</text>
<rect x="952" y="306" width="258" height="104" rx="4" fill="#222222" stroke="rgba(200,146,42,0.22)" stroke-width="1"/>
<text class="f-syne t-label" x="966" y="326">PostgreSQL</text>
<line x1="966" y1="336" x2="1196" y2="336" stroke="rgba(200,146,42,0.15)" stroke-width="1"/>
<text class="f-syne t-body" x="966" y="352">Banco único</text>
<text class="f-syne t-body" x="966" y="367">Row-level multi-tenant</text>
<text class="f-mono t-small" x="966" y="382">FK: organizationId</text>
<rect x="952" y="428" width="258" height="120" rx="4" fill="#222222" stroke="rgba(200,146,42,0.22)" stroke-width="1"/>
<text class="f-syne t-label" x="966" y="448">Redis (ioredis)</text>
<line x1="966" y1="458" x2="1196" y2="458" stroke="rgba(200,146,42,0.15)" stroke-width="1"/>
<text class="f-syne t-body" x="966" y="474">locks — lock.service</text>
<text class="f-syne t-body" x="966" y="489">throttling — throttler-storage</text>
<text class="f-syne t-body" x="966" y="504">cache — reports-cache.service</text>
<text class="f-syne t-body" x="966" y="519">pubsub</text>
<rect x="952" y="566" width="258" height="89" rx="4" fill="#222222" stroke="rgba(200,146,42,0.22)" stroke-width="1"/>
<text class="f-syne t-label" x="966" y="586">Prometheus</text>
<line x1="966" y1="596" x2="1196" y2="596" stroke="rgba(200,146,42,0.15)" stroke-width="1"/>
<text class="f-syne t-body" x="966" y="612">Coleta /metrics</text>
<text class="f-mono t-small" x="966" y="627">monitoring/prometheus.yml</text>
<rect x="952" y="673" width="258" height="188" rx="4" fill="#1e1e1e" stroke="rgba(200,146,42,0.22)" stroke-width="1" stroke-dasharray="5 4"/>
<text class="f-syne t-label" x="966" y="693">Infra Local</text>
<line x1="966" y1="703" x2="1196" y2="703" stroke="rgba(200,146,42,0.15)" stroke-width="1"/>
<text class="f-mono t-small" x="966" y="719">docker-compose.yml</text>
<text class="f-syne t-body" x="966" y="733">postgres · redis · backend</text>
<text class="f-mono t-small" x="966" y="748">Dockerfile (backend / admin)</text>
<text class="f-syne t-body" x="966" y="762">Volumes: pgdata, redisdata</text>
<text class="f-mono t-small" x="966" y="777">Portas: 5432 · 6379 · 3000</text>
<text class="f-mono t-small" x="966" y="791">Network: bridge isolado</text>
<text class="f-mono t-small" x="966" y="805">Env: .env por serviço</text>
<text class="f-mono t-small" x="966" y="819">Healthcheck em todos os serviços</text>
<text class="f-mono t-accent" x="966" y="833">3 serviços orquestrados</text>
<path class="flow1" d="M196,85 L202,85 L202,60 L1232,60 L1232,100 L1210,100"/>
<circle cx="717" cy="60" r="9" fill="#1a1a1a" stroke="#c8922a" stroke-width="1.3"/>
<text class="f-mono t-badge" x="717" y="64" text-anchor="middle">1</text>
<path class="flow2" d="M952,229 L928,229 L928,267 L922,267"/>
<circle cx="928" cy="248" r="9" fill="#1a1a1a" stroke="#d4a843" stroke-width="1.3"/>
<text class="f-mono t-badge2" x="928" y="252" text-anchor="middle">2</text>
<path class="flow2" d="M922,309 L928,309 L928,358 L952,358"/>
<path class="flow3" d="M196,170 L207,170 L207,210 L226,210"/>
<path class="flow3" d="M474,210 L483,210 L483,507 L504,507"/>
<circle cx="471" cy="358" r="9" fill="#1a1a1a" stroke="#c8922a" stroke-width="1.3" stroke-dasharray="5 4"/>
<text class="f-mono t-badge" x="471" y="362" text-anchor="middle">3</text>
<path class="flow1" d="M196,255 L207,255 L207,294 L226,294"/>
<path class="flow2" d="M474,294 L487,294 L487,500 L719,500"/>
<path class="flow1" d="M709,763 L928,763 L928,610 L952,610"/>
</svg>